<?xml version="1.0" encoding="utf-8"?>
<!-- Generator: Adobe Illustrator 16.0.0, SVG Export Plug-In . SVG Version: 6.00 Build 0)  -->
<!DOCTYPE svg PUBLIC "-//W3C//DTD SVG 1.1//EN" "http://www.w3.org/Graphics/SVG/1.1/DTD/svg11.dtd">
<svg version="1.1" id="Layer_1" xmlns="http://www.w3.org/2000/svg" xmlns:xlink="http://www.w3.org/1999/xlink" x="0px" y="0px"
	 width="612px" height="231px" viewBox="0 0 612 231" enable-background="new 0 0 612 231" xml:space="preserve">
<g>
	<g>
		<g>
			<path fill-rule="evenodd" clip-rule="evenodd" fill="#FF6600" stroke="#FFFFFF" stroke-miterlimit="10" d="M96.66,105.615
				c-4.65,14.096-9.292,28.194-13.952,42.288c-1.94,5.866-4.022,11.688-5.821,17.598c-0.721,2.366-1.749,3.465-4.382,3.388
				c-6.051-0.176-12.114-0.177-18.165,0.005c-2.52,0.076-3.463-1.008-3.97-3.224c-4.29-18.743-8.626-37.477-12.967-56.209
				c-0.299-1.29-0.753-2.544-2.108-3.707c-0.831,12.181-1.714,24.358-2.473,36.544c-0.463,7.444-0.822,14.897-1.047,22.353
				c-0.097,3.205-1.294,4.379-4.597,4.24c-6.031-0.253-12.08-0.072-18.752-0.072c0.422-4.304,0.867-8.282,1.196-12.27
				c1.989-24.107,3.982-48.215,5.905-72.327c0.516-6.464,0.405-6.335,6.928-6.247c8.586,0.117,17.185,0.205,25.761-0.129
				c3.747-0.145,4.995,1.168,5.753,4.675c3.618,16.731,7.521,33.4,11.349,50.084c0.082,0.355,0.485,0.636,1,1.278
				c0.509-1.177,0.983-2.09,1.307-3.053c5.63-16.767,11.194-33.555,16.961-50.273c0.392-1.137,2.265-2.482,3.472-2.505
				c10.415-0.199,20.836-0.057,31.253-0.159c2.664-0.025,3.331,1.03,3.25,3.536c-0.772,23.922-1.475,47.845-2.134,71.77
				c-0.139,5.031-0.021,10.069-0.021,15.326c-8.353,0-16.285,0-24.252,0c0.7-21.14,1.389-41.974,2.079-62.807
				C97.71,105.685,97.185,105.649,96.66,105.615z"/>
			<path fill-rule="evenodd" clip-rule="evenodd" fill="#FF6600" d="M536.233,170.208c0-1.898,0-3.418,0-4.938
				c0-23.664,0.059-47.33-0.1-70.994c-0.014-2.111-0.912-5.314-2.36-6.009c-1.431-0.686-4.683,0.569-6.099,2
				c-11.118,11.24-18.7,24.29-18.934,40.61c-0.062,4.308,0.375,8.654,0.994,12.923c0.183,1.261,1.55,2.96,2.748,3.369
				c9.714,3.32,7.427,7.156,6.826,15.813c-0.172,2.466-1.125,4.878-1.916,8.121c-4.592-0.846-9.494-1.5-14.265-2.685
				c-7.132-1.771-13.629-4.935-19.164-9.907c-6.315-5.673-9.433-13.06-11.022-21.117c-2.211-11.199-1.525-22.408,2.741-32.947
				c3.981-9.831,11.505-16.867,21.163-21.303c11.439-5.252,23.473-6.492,36.034-5.828c9.983,0.529,19.444,2.091,28.284,6.81
				c11.691,6.243,17.416,16.441,19.38,29.17c1.492,9.67,1.007,19.03-2.252,28.446c-3.904,11.286-11.607,18.7-21.999,23.474
				c-5.034,2.313-10.63,3.427-16.01,4.946C539.149,170.482,537.846,170.208,536.233,170.208z"/>
			<path fill-rule="evenodd" clip-rule="evenodd" fill="#FF6600" d="M406.856,160.714c0-1.866,0.002-3.23,0-4.594
				c-0.024-10.842-0.11-21.686,0.021-32.525c0.014-1.098,1.343-2.179,2.061-3.269c0.606,1.065,1.728,2.126,1.739,3.196
				c0.098,9.573-0.004,19.148-0.037,28.723c-0.007,1.829-0.141,3.682,0.11,5.478c0.129,0.921,0.978,1.74,1.5,2.606
				c0.69-0.905,1.866-1.751,1.985-2.727c0.525-4.321,0.747-8.679,1.077-13.023c0.532-7.002,1.007-14.01,1.653-21.001
				c0.098-1.063,0.987-2.052,1.511-3.074c0.507,1.092,1.479,2.197,1.448,3.273c-0.322,11.101-0.846,22.195-1.185,33.295
				c-0.034,1.103,0.782,2.23,1.204,3.347c0.714-1.026,1.916-1.985,2.066-3.089c1.729-12.648,3.233-25.326,4.935-37.979
				c0.917-6.825-1.667-11.976-6.787-16.29c-5.975-5.036-9.158-16.75-6.549-23.813c0.275-0.745,1.652-1.584,2.481-1.548
				c17.028,0.752,32.539,5.039,41.461,21.186c9.34,16.899,8.146,45.156-8.787,59.509c-7.965,6.751-17.522,10.148-27.716,11.357
				c-14.063,1.666-28.108,1.684-41.606-3.602c-16.811-6.581-23.906-19.542-24.95-37.088c-0.66-11.086,1.15-21.662,7.397-31.019
				c7.669-11.482,19.124-16.986,32.312-19.463c0.275-0.052,0.563-0.035,0.841-0.079c9.858-1.56,9.516-2.716,9.428,8.985
				c-0.048,6.244-1.542,12.039-7.401,16.119c-5.664,3.944-7.213,9.741-6.14,16.753c1.869,12.194,2.985,24.503,4.573,36.743
				c0.154,1.182,1.41,2.221,2.155,3.326c0.449-1.267,1.322-2.547,1.28-3.796c-0.373-11.094-0.947-22.181-1.327-33.274
				c-0.033-0.951,0.903-1.937,1.39-2.907c0.557,0.987,1.519,1.94,1.607,2.967c0.913,10.642,1.688,21.295,2.496,31.945
				C403.267,157.505,402.835,159.988,406.856,160.714z"/>
			<path fill-rule="evenodd" clip-rule="evenodd" fill="#FF6600" d="M248.88,169.058c0-30.45,0-60.537,0-90.798
				c0.828-0.171,1.488-0.428,2.148-0.428c15.348-0.01,30.729-0.61,46.036,0.196c15.118,0.795,29.01,5.514,39.146,17.839
				c4.705,5.72,7.212,12.498,8.096,19.64c1.644,13.271,0.71,26.198-8.375,37.121c-5.769,6.937-13.268,11.407-21.929,13.392
				c-7.365,1.687-14.936,3.046-22.461,3.326c-13.358,0.496-26.75,0.067-40.127,0.011
				C250.732,169.353,250.049,169.199,248.88,169.058z M277.065,123.565c0,9.143,0.067,18.286-0.045,27.428
				c-0.03,2.502,0.831,3.753,3.336,3.621c5.182-0.27,10.475-0.024,15.515-1.031c9.418-1.881,15.877-7.803,17.114-17.412
				c0.994-7.71,1.258-15.797,0.06-23.437c-1.623-10.351-7.927-17.641-18.893-19.42c-4.257-0.691-8.667-0.38-12.985-0.764
				c-3.497-0.311-4.235,1.272-4.174,4.432C277.166,105.841,277.054,114.704,277.065,123.565z"/>
			<path fill-rule="evenodd" clip-rule="evenodd" fill="#FF6600" d="M130.765,124.356c0.24-25.293,13.505-41.734,38.354-46.687
				c13.566-2.705,27.167-2.513,40.544,1.382c15.727,4.579,25.424,14.825,28.677,31.005c2.639,13.124,1.599,25.823-5.32,37.465
				c-7.995,13.45-20.996,19.059-35.789,20.992c-9.479,1.24-9.34,0.906-9.203-8.766c0.098-6.896,2.228-12.191,8.686-15.553
				c15.949-8.304,17.069-28.094,9.034-41.411c-2.582-4.279-5.928-8.249-9.537-11.725c-6.371-6.138-12.379-6.767-19.471-1.865
				c-11.238,7.77-20.196,22.797-15.967,39.282c1.894,7.383,6.78,12.598,13.363,16.1c5.918,3.147,8.398,7.935,8.213,14.454
				c-0.325,11.443,2.575,11.123-10.774,9.646c-8.923-0.987-17.314-3.652-24.941-8.466c-8.433-5.321-12.156-13.736-14.351-22.902
				C131.281,133.11,131.242,128.681,130.765,124.356z"/>
			<path fill-rule="evenodd" clip-rule="evenodd" fill="#FF6600" d="M570.854,87.339c-12.921-13.368-28.805-14.171-44.97-14.793
				c4.465-0.264,8.944-0.871,13.393-0.698c4.748,0.186,9.54,0.778,14.178,1.804c4.473,0.989,8.772,2.759,13.752,4.383
				c1.347-5.827,2.82-11.361,3.732-16.987c0.151-0.931-1.985-2.966-3.35-3.287c-6.829-1.611-13.749-2.837-20.646-4.155
				c-1.176-0.226-2.393-0.239-3.569-0.686c10.009-1.299,19.955-1.315,29.913,0.599c3.415,0.656,7.007,0.905,10.474,0.67
				c7.222-0.488,11.93-5.432,11.809-11.824c-0.109-5.814-5.362-10.971-11.966-11.536c-7.209-0.617-13.697,1.063-18.915,6.425
				c-0.868,0.892-1.84,1.682-2.641,2.408c-4.147-4.999-7.766-10.215-12.242-14.544c-5.965-5.768-13.4-8.263-21.764-6.354
				c-12.614,2.881-15.782,9.674-9.548,21.437c-3.462-0.444-6.524-1.026-9.608-1.186c-4.056-0.21-8.196-0.563-12.178,0.006
				c-5.789,0.827-8.041,4.666-5.833,10.111c2.194,5.416,5.209,10.5,8.331,16.649c-5.858-5.993-11.059-11.396-12.807-18.989
				c-1.313-5.703,1.404-9.683,7.538-11.181c4.303-1.052,8.806-1.282,13.155-1.87c2.034-16.245,16.926-25.082,34.294-20.649
				c8.075,2.061,14.652,6.444,19.955,12.731c1.734,2.057,3.14,2.473,5.703,1.349c7.46-3.27,15.253-3.945,23.083-1.417
				c9.279,2.995,14.272,10.269,13.334,18.998c-0.791,7.36-7.999,13.749-16.75,14.848c-8.337,1.047-8.32,1.052-10.588,9.179
				C574.475,74.688,572.773,80.584,570.854,87.339z"/>
			<path fill-rule="evenodd" clip-rule="evenodd" fill="#FFFFFF" d="M277.059,123.565c-0.005-8.861,0.106-17.725-0.065-26.583
				c-0.061-3.16,0.677-4.743,4.174-4.432c4.318,0.384,8.728,0.073,12.985,0.764c10.966,1.78,17.27,9.07,18.893,19.42
				c1.198,7.64,0.935,15.727-0.06,23.437c-1.237,9.609-7.696,15.531-17.114,17.412c-5.04,1.007-10.333,0.762-15.515,1.031
				c-2.505,0.132-3.366-1.119-3.336-3.621C277.132,141.852,277.065,132.708,277.059,123.565z"/>
		</g>
		<g display="none">
			<path display="inline" fill-rule="evenodd" clip-rule="evenodd" fill="#FFFFFF" d="M180.556,178.508
				c-1.828,0-3.725,0.296-5.455-0.116c-0.973-0.231-2.375-1.681-2.318-2.491c0.082-1.146,1.302-3.129,2.091-3.156
				c4.47-0.155,8.97,0.017,13.426,0.437c1.048,0.098,1.965,1.579,2.942,2.424c-0.916,0.769-1.733,1.991-2.767,2.216
				c-2.578,0.562-5.255,0.668-7.892,0.958C180.574,178.688,180.564,178.598,180.556,178.508z"/>
			<path display="inline" fill-rule="evenodd" clip-rule="evenodd" fill="#FFFFFF" d="M347.803,178.228
				c-0.764-5.554-0.673-5.734,4.386-5.699c3.083,0.021,6.2,0.082,9.229,0.578c1.257,0.207,2.32,1.593,3.472,2.442
				c-1.145,0.893-2.241,2.473-3.441,2.556C357.004,178.412,352.528,178.228,347.803,178.228z"/>
			<g display="inline">
				<path fill="#FF6600" d="M193.281,203.312h-21.773l-9.346-12.234h-6.193v12.234h-19.641v-31.992h33.422
					c7.375,0,13.102,0.863,17.18,2.59s6.117,4.004,6.117,6.832c0,1.844-0.75,3.473-2.25,4.887s-4.531,2.66-9.094,3.738
					L193.281,203.312z M155.969,184.233h8.391c2.468,0,4.453-0.258,5.953-0.773s2.25-1.273,2.25-2.273
					c0-2.047-2.516-3.07-7.547-3.07h-9.047V184.233z"/>
				<path fill="#FF6600" d="M250.703,195.671v7.641h-48.141v-31.992h48.141v7.383h-28.875v4.641h23.344v7.102h-23.344v5.227H250.703
					z"/>
				<path fill="#FF6600" d="M293.688,191.101l17.953,0.539c-0.844,3.922-3.742,6.93-8.695,9.023s-11.039,3.141-18.258,3.141
					c-8.688,0-15.703-1.438-21.047-4.313s-8.016-6.844-8.016-11.906c0-5.016,2.531-9.063,7.594-12.141s12.125-4.617,21.188-4.617
					c8.468,0,14.977,1.172,19.523,3.516s7.117,5.453,7.711,9.328l-18.328,0.492c0-2.141-0.82-3.688-2.461-4.641
					s-3.57-1.43-5.789-1.43c-6.188,0-9.281,3.109-9.281,9.328c0,3.484,0.804,5.852,2.414,7.102c1.609,1.25,3.867,1.875,6.773,1.875
					C290.156,196.397,293.062,194.632,293.688,191.101z"/>
				<path fill="#FF6600" d="M338.453,171.319v31.992h-19.641v-31.992H338.453z"/>
				<path fill="#FF6600" d="M369.531,191.687v11.625h-19.922v-31.992h27.328c6.813,0,11.992,0.391,15.539,1.172
					s6.359,1.977,8.438,3.586s3.117,3.414,3.117,5.414c0,3.047-2.125,5.508-6.375,7.383s-9.922,2.813-17.016,2.813H369.531z
					 M369.25,184.819h6.563c5.781,0,8.672-1.063,8.672-3.188c0-2-2.672-3-8.016-3h-7.219V184.819z"/>
				<path fill="#FF6600" d="M459.484,195.671v7.641h-48.141v-31.992h48.141v7.383h-28.875v4.641h23.344v7.102h-23.344v5.227H459.484
					z"/>
			</g>
		</g>
	</g>
</g>
<g>
	<path fill="#FF6600" d="M94.79,209.438l-4.176-12.867l-3.945,12.867H82.26l6.033-19.758h4.718l6.033,19.758H94.79z M99.972,221.391
		v-20.672h-3.635v-3.164h3.635v-7.875h4.331v31.711H99.972z M106.237,221.391V189.68h4.332v31.711H106.237z"/>
	<path fill="#FF6600" d="M154.669,205.711l-5.878-11.672l-5.801,11.672h-4.563l8.044-16.031h4.641l8.121,16.031H154.669z
		 M161.254,220.417c-1.849,1.539-4.082,2.31-6.701,2.31c-2.67,0-4.931-0.771-6.779-2.31c-1.849-1.541-2.772-3.406-2.772-5.601
		c0-2.193,0.923-4.047,2.772-5.564c1.849-1.517,4.109-2.275,6.779-2.275c2.619,0,4.853,0.759,6.701,2.275
		c1.849,1.518,2.773,3.371,2.773,5.564C164.028,217.011,163.104,218.876,161.254,220.417z M158.176,211.522
		c-1.013-0.921-2.221-1.382-3.623-1.382c-1.455,0-2.688,0.461-3.702,1.382c-1.013,0.921-1.519,2.02-1.519,3.294
		c0,1.322,0.506,2.444,1.519,3.365c1.013,0.92,2.247,1.381,3.702,1.381c1.402,0,2.61-0.461,3.623-1.381
		c1.013-0.921,1.521-2.043,1.521-3.365C159.697,213.542,159.189,212.443,158.176,211.522z M165.111,199.242v8.297h-4.331V189.68
		h4.331v6.398h3.48v3.164H165.111z"/>
	<path fill="#FF6600" d="M195.291,210.281v-3.164h21.115v3.164H195.291z M211.946,202.171c-1.735,1.423-3.819,2.134-6.253,2.134
		s-4.519-0.711-6.254-2.134s-2.602-3.16-2.602-5.214c0-2.053,0.867-3.79,2.602-5.213s3.82-2.135,6.254-2.135
		s4.518,0.712,6.253,2.135s2.603,3.16,2.603,5.213C214.549,199.011,213.682,200.748,211.946,202.171z M208.903,193.989
		c-0.877-0.811-1.934-1.216-3.171-1.216c-1.29,0-2.372,0.405-3.249,1.216c-0.877,0.812-1.314,1.812-1.314,3.004
		c0,1.145,0.438,2.122,1.314,2.933c0.876,0.811,1.959,1.215,3.249,1.215c1.238,0,2.294-0.404,3.171-1.215
		c0.876-0.811,1.314-1.788,1.314-2.933C210.218,195.801,209.779,194.801,208.903,193.989z M217.875,221.391V189.68h4.331v31.711
		H217.875z"/>
	<path fill="#FF6600" d="M252.309,217.383v-3.164h11.833v-7.664h-9.126V189.68H277.6v16.875h-9.127v7.664h11.68v3.164H252.309z
		 M273.269,192.844h-13.922v10.547h13.922V192.844z"/>
	<path fill="#FF6600" d="M308.631,209.016v-3.164h27.844v3.164H308.631z M311.26,202.266V189.68h22.584v3.164h-18.252v6.258h18.252
		v3.164H311.26z M311.26,221.391v-10.406h4.332v7.242h19.18v3.164H311.26z"/>
	<path fill="#FF6600" d="M381.58,221.391v-20.25h-11.523v5.133h10.828v3.164h-15.16v-11.461h8.973v-5.133h-8.973v-3.164h13.303
		v8.297h2.553v-8.297h4.332v31.711H381.58z M387.459,221.391V189.68h4.33v31.711H387.459z"/>
	<path fill="#FF6600" d="M435.891,209.438l-5.955-14.273l-5.801,14.273h-4.563l8.043-19.758h4.719l8.043,19.758H435.891z
		 M442.852,221.391V189.68h4.332v31.711H442.852z"/>
	<path fill="#FF6600" d="M477.363,209.508v-3.164h2.785v-13.5h-2.785v-3.164h19.26v3.164h-2.707v13.5h2.707v3.164H477.363z
		 M489.584,192.844h-5.105v13.5h5.105V192.844z M499.098,221.391V189.68h4.33v31.711H499.098z"/>
</g>
</svg>
