<?xml version="1.0" encoding="utf-8"?>
<!-- Generator: Adobe Illustrator 16.0.0, SVG Export Plug-In . SVG Version: 6.00 Build 0)  -->
<!DOCTYPE svg PUBLIC "-//W3C//DTD SVG 1.1//EN" "http://www.w3.org/Graphics/SVG/1.1/DTD/svg11.dtd">
<svg version="1.1" id="Layer_1" xmlns="http://www.w3.org/2000/svg" xmlns:xlink="http://www.w3.org/1999/xlink" x="0px" y="0px"
	 width="238px" height="86px" viewBox="31 12 238 86" enable-background="new 31 12 238 86" xml:space="preserve">
<g>
	<g>
		<g>
			<g>
				<path fill="#F26822" d="M66.993,50.147c-1.845,5.59-3.685,11.18-5.533,16.771c-0.77,2.326-1.595,4.633-2.309,6.979
					c-0.286,0.936-0.692,1.373-1.738,1.346c-2.399-0.074-4.804-0.074-7.204,0c-1,0.029-1.374-0.402-1.574-1.277
					c-1.701-7.434-3.422-14.864-5.145-22.292c-0.118-0.512-0.297-1.009-0.835-1.472c-0.33,4.832-0.678,9.662-0.98,14.492
					c-0.184,2.953-0.326,5.908-0.416,8.865c-0.038,1.271-0.513,1.734-1.822,1.682c-2.392-0.1-4.79-0.025-7.437-0.025
					c0.167-1.707,0.343-3.287,0.474-4.867c0.788-9.56,1.58-19.121,2.341-28.684c0.206-2.563,0.16-2.512,2.749-2.478
					c3.405,0.047,6.814,0.082,10.216-0.051c1.487-0.058,1.981,0.463,2.283,1.854c1.435,6.636,2.983,13.246,4.502,19.863
					c0.033,0.14,0.192,0.252,0.396,0.506c0.202-0.467,0.389-0.828,0.519-1.211c2.233-6.648,4.439-13.306,6.727-19.936
					c0.156-0.452,0.899-0.984,1.377-0.993c4.13-0.079,8.264-0.023,12.395-0.063c1.057-0.011,1.322,0.408,1.288,1.402
					c-0.306,9.487-0.584,18.974-0.846,28.461c-0.055,1.994-0.007,3.994-0.007,6.08c-3.313,0-6.459,0-9.619,0
					c0.277-8.385,0.551-16.648,0.825-24.91C67.41,50.175,67.201,50.161,66.993,50.147z"/>
				<path fill="#F26822" d="M241.326,75.766c0-0.754,0-1.357,0-1.965c0-9.38,0.021-18.766-0.04-28.15
					c-0.009-0.838-0.36-2.108-0.938-2.383c-0.568-0.272-1.856,0.225-2.419,0.794c-4.409,4.457-7.413,9.633-7.508,16.104
					c-0.024,1.71,0.149,3.433,0.393,5.125c0.074,0.499,0.615,1.179,1.093,1.337c3.853,1.318,2.944,2.836,2.706,6.271
					c-0.067,0.979-0.444,1.934-0.76,3.219c-1.819-0.332-3.764-0.594-5.658-1.064c-2.827-0.701-5.403-1.955-7.6-3.928
					c-2.504-2.248-3.739-5.178-4.37-8.373c-0.876-4.441-0.605-8.888,1.087-13.067c1.578-3.9,4.563-6.689,8.394-8.449
					c4.536-2.083,9.308-2.575,14.291-2.311c3.96,0.21,7.712,0.828,11.216,2.7c4.638,2.476,6.909,6.521,7.688,11.569
					c0.588,3.835,0.396,7.545-0.897,11.282c-1.548,4.476-4.603,7.415-8.721,9.308c-2,0.918-4.217,1.359-6.352,1.965
					C242.484,75.873,241.965,75.766,241.326,75.766z"/>
				<path fill="#F26822" d="M190.017,71.998c0-0.738,0-1.279,0-1.822c-0.013-4.299-0.044-8.598,0.006-12.898
					c0.007-0.436,0.533-0.863,0.817-1.295c0.242,0.42,0.688,0.844,0.691,1.266c0.037,3.797,0,7.594-0.017,11.393
					c-0.003,0.725-0.053,1.461,0.046,2.17c0.05,0.363,0.387,0.689,0.595,1.033c0.272-0.359,0.741-0.693,0.788-1.082
					c0.205-1.711,0.294-3.439,0.426-5.164c0.211-2.775,0.4-5.557,0.657-8.326c0.036-0.422,0.388-0.816,0.596-1.221
					c0.204,0.433,0.589,0.873,0.576,1.299c-0.13,4.4-0.333,8.803-0.471,13.203c-0.012,0.438,0.31,0.883,0.475,1.326
					c0.287-0.406,0.761-0.787,0.822-1.225c0.688-5.018,1.283-10.043,1.96-15.063c0.361-2.706-0.664-4.749-2.694-6.46
					c-2.367-1.997-3.629-6.643-2.595-9.443c0.106-0.297,0.653-0.628,0.984-0.615c6.751,0.298,12.901,1.998,16.44,8.403
					c3.705,6.702,3.232,17.908-3.483,23.599c-3.16,2.676-6.95,4.023-10.992,4.504c-5.575,0.66-11.148,0.668-16.5-1.428
					c-6.67-2.609-9.48-7.75-9.896-14.709c-0.26-4.396,0.455-8.591,2.933-12.302c3.042-4.554,7.585-6.736,12.818-7.719
					c0.107-0.021,0.222-0.014,0.333-0.031c3.91-0.619,3.771-1.078,3.736,3.563c-0.019,2.476-0.612,4.774-2.937,6.394
					c-2.244,1.563-2.86,3.862-2.436,6.642c0.743,4.838,1.188,9.719,1.815,14.572c0.062,0.471,0.56,0.881,0.854,1.322
					c0.182-0.504,0.525-1.012,0.508-1.506c-0.145-4.4-0.375-8.799-0.524-13.193c-0.015-0.381,0.358-0.771,0.551-1.156
					c0.222,0.389,0.602,0.77,0.641,1.176c0.358,4.219,0.668,8.445,0.987,12.668C188.59,70.727,188.421,71.711,190.017,71.998z"/>
				<path fill="#F26822" d="M127.363,75.307c0-12.076,0-24.006,0-36.008c0.329-0.068,0.59-0.17,0.852-0.17
					c6.087-0.004,12.187-0.242,18.26,0.078c5.996,0.315,11.503,2.187,15.524,7.074c1.864,2.268,2.86,4.956,3.21,7.789
					c0.653,5.262,0.283,10.391-3.318,14.723c-2.291,2.75-5.265,4.523-8.701,5.311c-2.92,0.668-5.922,1.207-8.907,1.318
					c-5.298,0.197-10.609,0.029-15.915,0.006C128.098,75.426,127.826,75.365,127.363,75.307z M138.541,57.268
					c0,3.623,0.027,7.25-0.018,10.875c-0.011,0.994,0.33,1.49,1.323,1.439c2.055-0.111,4.154-0.012,6.153-0.41
					c3.735-0.748,6.297-3.096,6.788-6.908c0.395-3.057,0.498-6.263,0.022-9.293c-0.645-4.104-3.145-6.996-7.493-7.701
					c-1.688-0.275-3.437-0.151-5.149-0.304c-1.387-0.123-1.679,0.504-1.655,1.758C138.581,50.237,138.537,53.752,138.541,57.268z"/>
				<path fill="#F26822" d="M80.519,57.58c0.096-10.03,5.356-16.551,15.211-18.515c5.381-1.073,10.775-0.997,16.08,0.548
					c6.237,1.816,10.083,5.879,11.373,12.296c1.047,5.203,0.635,10.239-2.11,14.858c-3.17,5.334-8.326,7.557-14.193,8.324
					c-3.76,0.492-3.704,0.359-3.651-3.477c0.04-2.734,0.884-4.832,3.445-6.168c6.326-3.292,6.771-11.142,3.583-16.422
					c-1.023-1.697-2.352-3.271-3.783-4.65c-2.527-2.435-4.91-2.684-7.721-0.739c-4.458,3.08-8.01,9.04-6.333,15.577
					c0.751,2.928,2.689,4.997,5.299,6.387c2.348,1.248,3.33,3.146,3.257,5.734c-0.128,4.537,1.021,4.408-4.272,3.824
					c-3.539-0.393-6.866-1.453-9.892-3.359c-3.345-2.109-4.82-5.449-5.69-9.082C80.724,61.051,80.708,59.295,80.519,57.58z"/>
				<path fill="#F26822" d="M255.055,42.899c-5.122-5.301-11.424-5.62-17.834-5.867c1.771-0.104,3.547-0.346,5.311-0.276
					c1.885,0.073,3.785,0.308,5.625,0.715c1.771,0.393,3.479,1.094,5.452,1.739c0.535-2.312,1.119-4.507,1.481-6.738
					c0.06-0.369-0.789-1.176-1.33-1.303c-2.708-0.639-5.452-1.125-8.187-1.648c-0.468-0.089-0.949-0.095-1.417-0.272
					c3.972-0.516,7.916-0.521,11.865,0.236c1.355,0.261,2.775,0.358,4.151,0.267c2.867-0.193,4.733-2.155,4.685-4.69
					c-0.043-2.306-2.126-4.351-4.742-4.575c-2.861-0.245-5.435,0.421-7.504,2.548c-0.343,0.354-0.73,0.668-1.046,0.956
					c-1.646-1.983-3.081-4.052-4.857-5.768c-2.363-2.288-5.312-3.277-8.632-2.521c-5.003,1.143-6.256,3.836-3.785,8.501
					c-1.372-0.175-2.59-0.406-3.809-0.469c-1.611-0.084-3.251-0.224-4.834,0.002c-2.293,0.328-3.185,1.85-2.313,4.008
					c0.869,2.148,2.067,4.164,3.306,6.604c-2.322-2.377-4.387-4.521-5.076-7.533c-0.526-2.261,0.556-3.839,2.985-4.434
					c1.708-0.416,3.493-0.508,5.219-0.741c0.808-6.442,6.714-9.948,13.601-8.19c3.201,0.818,5.813,2.557,7.914,5.049
					c0.689,0.816,1.248,0.98,2.263,0.535c2.959-1.296,6.049-1.564,9.153-0.562c3.681,1.188,5.661,4.072,5.291,7.533
					c-0.317,2.919-3.175,5.454-6.646,5.89c-3.305,0.415-3.298,0.417-4.198,3.641C256.491,37.882,255.816,40.221,255.055,42.899z"/>
			</g>
			<g display="none">
				<path display="inline" fill="#FFFFFF" d="M100.266,79.055c-0.724,0-1.477,0.119-2.163-0.045
					c-0.387-0.092-0.942-0.668-0.918-0.99c0.031-0.453,0.517-1.238,0.828-1.25c1.773-0.063,3.557,0.006,5.325,0.174
					c0.415,0.039,0.779,0.623,1.166,0.959c-0.363,0.307-0.687,0.793-1.097,0.883c-1.022,0.221-2.083,0.262-3.13,0.379
					C100.272,79.125,100.269,79.092,100.266,79.055z"/>
				<path display="inline" fill="#FFFFFF" d="M166.594,78.943c-0.303-2.201-0.268-2.273,1.74-2.262c1.223,0.01,2.46,0.035,3.66,0.23
					c0.499,0.082,0.922,0.631,1.379,0.969c-0.454,0.354-0.89,0.982-1.367,1.016C170.246,79.018,168.47,78.943,166.594,78.943z"/>
				<g display="inline">
					<path fill="#F26822" d="M105.313,88.895h-8.636l-3.707-4.855h-2.455v4.855h-7.789V76.203H95.98
						c2.925,0,5.197,0.344,6.814,1.027c1.616,0.686,2.425,1.59,2.425,2.709c0,0.732-0.298,1.379-0.892,1.939
						c-0.595,0.561-1.797,1.057-3.607,1.482L105.313,88.895z M90.515,81.324h3.328c0.979,0,1.766-0.1,2.36-0.305
						c0.595-0.207,0.892-0.506,0.892-0.904c0-0.809-0.999-1.215-2.993-1.215h-3.588V81.324L90.515,81.324z"/>
					<path fill="#F26822" d="M128.086,85.861v3.033h-19.091V76.203h19.091v2.93h-11.452v1.842h9.257v2.814h-9.257v2.072H128.086
						L128.086,85.861z"/>
					<path fill="#F26822" d="M145.133,84.049l7.118,0.215c-0.333,1.555-1.481,2.75-3.446,3.58c-1.965,0.828-4.377,1.246-7.241,1.246
						c-3.446,0-6.228-0.572-8.347-1.713c-2.12-1.139-3.179-2.713-3.179-4.721c0-1.99,1.003-3.594,3.011-4.814
						c2.008-1.223,4.809-1.832,8.403-1.832c3.358,0,5.94,0.463,7.743,1.395c1.804,0.928,2.822,2.16,3.056,3.699l-7.266,0.195
						c0-0.852-0.324-1.463-0.976-1.842c-0.651-0.377-1.416-0.566-2.296-0.566c-2.454,0-3.681,1.232-3.681,3.699
						c0,1.381,0.319,2.32,0.958,2.816c0.638,0.496,1.534,0.744,2.687,0.744C143.733,86.15,144.885,85.449,145.133,84.049z"/>
					<path fill="#F26822" d="M162.889,76.203v12.691h-7.793V76.203H162.889z"/>
					<path fill="#F26822" d="M175.213,84.283v4.611h-7.901V76.203h10.841c2.697,0,4.753,0.158,6.16,0.467s2.523,0.783,3.347,1.422
						c0.825,0.639,1.235,1.354,1.235,2.146c0,1.207-0.842,2.184-2.53,2.93c-1.684,0.742-3.932,1.115-6.749,1.115H175.213
						L175.213,84.283z M175.1,81.559h2.604c2.292,0,3.442-0.424,3.442-1.266c0-0.791-1.061-1.188-3.181-1.188h-2.863v2.453H175.1z"
						/>
					<path fill="#F26822" d="M210.885,85.861v3.033h-19.091V76.203h19.091v2.93h-11.448v1.842h9.258v2.814h-9.258v2.072H210.885
						L210.885,85.861z"/>
				</g>
			</g>
		</g>
	</g>
	<g>
		<path fill="#F26822" d="M66.252,91.32l-1.656-5.102l-1.565,5.102h-1.749l2.393-7.836h1.87l2.394,7.836H66.252z M68.307,96.063
			v-8.197h-1.442v-1.256h1.442v-3.125h1.717v12.578H68.307z M70.792,96.063V83.484h1.717v12.578H70.792L70.792,96.063z"/>
		<path fill="#F26822" d="M89.999,89.848l-2.331-4.631l-2.3,4.631h-1.81l3.19-6.363h1.841l3.221,6.363H89.999z M92.611,95.676
			c-0.734,0.611-1.62,0.918-2.658,0.918c-1.06,0-1.956-0.307-2.688-0.918c-0.734-0.611-1.1-1.348-1.1-2.221
			c0-0.869,0.367-1.604,1.1-2.207c0.733-0.602,1.629-0.902,2.688-0.902c1.038,0,1.924,0.301,2.658,0.902
			c0.733,0.604,1.099,1.338,1.099,2.207C93.71,94.328,93.345,95.064,92.611,95.676z M91.39,92.146
			c-0.401-0.361-0.881-0.547-1.437-0.547c-0.577,0-1.066,0.186-1.468,0.547c-0.401,0.365-0.603,0.807-0.603,1.309
			c0,0.523,0.202,0.969,0.603,1.334s0.892,0.551,1.468,0.551c0.555,0,1.036-0.186,1.437-0.551c0.402-0.365,0.605-0.811,0.605-1.334
			C91.994,92.953,91.792,92.512,91.39,92.146z M94.14,87.277v3.293h-1.718v-7.086h1.718v2.541h1.38v1.254h-1.38V87.277z"/>
		<path fill="#F26822" d="M106.11,91.656V90.4h8.375v1.256H106.11z M112.715,88.438c-0.687,0.564-1.515,0.85-2.479,0.85
			c-0.966,0-1.793-0.285-2.48-0.85c-0.689-0.564-1.033-1.25-1.033-2.064s0.343-1.506,1.033-2.07c0.687-0.563,1.514-0.846,2.48-0.846
			c0.965,0,1.792,0.283,2.479,0.846c0.688,0.564,1.033,1.256,1.033,2.07S113.404,87.873,112.715,88.438z M111.508,85.193
			c-0.349-0.32-0.767-0.479-1.259-0.479c-0.51,0-0.94,0.158-1.288,0.479c-0.348,0.322-0.521,0.719-0.521,1.193
			c0,0.453,0.173,0.842,0.521,1.162c0.348,0.322,0.777,0.484,1.288,0.484c0.493,0,0.911-0.16,1.259-0.484
			c0.348-0.32,0.521-0.709,0.521-1.162C112.03,85.912,111.856,85.516,111.508,85.193z M115.066,96.063V83.484h1.718v12.578H115.066
			L115.066,96.063z"/>
		<path fill="#F26822" d="M128.723,94.475v-1.258h4.695V90.18h-3.621v-6.695h8.956v6.695h-3.618v3.037h4.63v1.258H128.723z
			 M137.035,84.74h-5.52v4.184h5.52V84.74z"/>
		<path fill="#F26822" d="M151.059,91.154v-1.256h11.045v1.256H151.059z M152.104,88.477v-4.992h8.956v1.256h-7.242v2.482h7.242
			v1.254H152.104z M152.104,96.063v-4.125h1.714v2.871h7.609v1.254H152.104L152.104,96.063z"/>
		<path fill="#F26822" d="M179.991,96.063v-8.029h-4.569v2.033h4.292v1.254h-6.013v-4.543h3.559v-2.035h-3.559v-1.258h5.28v3.293
			h1.01v-3.293h1.72v12.578H179.991L179.991,96.063z M182.321,96.063V83.484h1.719v12.578H182.321L182.321,96.063z"/>
		<path fill="#F26822" d="M201.529,91.32l-2.361-5.66l-2.299,5.66h-1.812l3.188-7.836h1.874l3.188,7.836H201.529z M204.293,96.063
			V83.484h1.715v12.578H204.293L204.293,96.063z"/>
		<path fill="#F26822" d="M217.977,91.35v-1.256h1.104V84.74h-1.104v-1.256h7.639v1.256h-1.072v5.354h1.072v1.256H217.977z
			 M222.824,84.74h-2.023v5.354h2.023V84.74z M226.597,96.063V83.484h1.718v12.578H226.597L226.597,96.063z"/>
	</g>
</g>
</svg>
